<mxfile host="app.diagrams.net" agent="Mozilla/5.0 (Macintosh; Intel Mac OS X 10_15_7) AppleWebKit/537.36 (KHTML, like Gecko) Chrome/132.0.0.0 Safari/537.36" version="26.0.10">
  <diagram name="Page-1" id="v4sQ2aMwUXSJKZnMTnwy">
    <mxGraphModel dx="2378" dy="1400" grid="0" gridSize="10" guides="1" tooltips="1" connect="1" arrows="1" fold="1" page="0" pageScale="1" pageWidth="850" pageHeight="1100" math="0" shadow="0">
      <root>
        <mxCell id="0" />
        <mxCell id="1" parent="0" />
        <mxCell id="fjc-DPdYbxBssnIR3eui-7" value="" style="endArrow=none;html=1;rounded=0;fontSize=12;startSize=8;endSize=8;curved=1;exitX=1;exitY=0.5;exitDx=0;exitDy=0;entryX=0;entryY=0.5;entryDx=0;entryDy=0;" parent="1" source="Lo-92Cxc7FktMRW2ecg3-2" target="fjc-DPdYbxBssnIR3eui-36" edge="1">
          <mxGeometry width="50" height="50" relative="1" as="geometry">
            <mxPoint x="-217" y="36" as="sourcePoint" />
            <mxPoint x="-100" y="36" as="targetPoint" />
          </mxGeometry>
        </mxCell>
        <mxCell id="fjc-DPdYbxBssnIR3eui-33" value="" style="shape=table;startSize=0;container=1;collapsible=0;childLayout=tableLayout;" parent="1" vertex="1">
          <mxGeometry x="-98" y="-30" width="187" height="269.25" as="geometry" />
        </mxCell>
        <mxCell id="fjc-DPdYbxBssnIR3eui-34" value="" style="shape=tableRow;horizontal=0;startSize=0;swimlaneHead=0;swimlaneBody=0;strokeColor=inherit;top=0;left=0;bottom=0;right=0;collapsible=0;dropTarget=0;fillColor=none;points=[[0,0.5],[1,0.5]];portConstraint=eastwest;" parent="fjc-DPdYbxBssnIR3eui-33" vertex="1">
          <mxGeometry width="187" height="27" as="geometry" />
        </mxCell>
        <mxCell id="fjc-DPdYbxBssnIR3eui-35" value="Bank" style="shape=partialRectangle;html=1;whiteSpace=wrap;connectable=0;strokeColor=inherit;overflow=hidden;fillColor=none;top=0;left=0;bottom=0;right=0;pointerEvents=1;" parent="fjc-DPdYbxBssnIR3eui-34" vertex="1">
          <mxGeometry width="187" height="27" as="geometry">
            <mxRectangle width="187" height="27" as="alternateBounds" />
          </mxGeometry>
        </mxCell>
        <mxCell id="fjc-DPdYbxBssnIR3eui-36" value="" style="shape=tableRow;horizontal=0;startSize=0;swimlaneHead=0;swimlaneBody=0;strokeColor=inherit;top=0;left=0;bottom=0;right=0;collapsible=0;dropTarget=0;fillColor=none;points=[[0,0.5],[1,0.5]];portConstraint=eastwest;" parent="fjc-DPdYbxBssnIR3eui-33" vertex="1">
          <mxGeometry y="27" width="187" height="74" as="geometry" />
        </mxCell>
        <mxCell id="fjc-DPdYbxBssnIR3eui-37" value="-_accounts: list of Accounts&lt;div&gt;-_currently_selected: Account&lt;/div&gt;&lt;div&gt;-_size: int&lt;/div&gt;" style="shape=partialRectangle;html=1;whiteSpace=wrap;connectable=0;strokeColor=inherit;overflow=hidden;fillColor=none;top=0;left=0;bottom=0;right=0;pointerEvents=1;align=left;spacingLeft=7;" parent="fjc-DPdYbxBssnIR3eui-36" vertex="1">
          <mxGeometry width="187" height="74" as="geometry">
            <mxRectangle width="187" height="74" as="alternateBounds" />
          </mxGeometry>
        </mxCell>
        <mxCell id="fjc-DPdYbxBssnIR3eui-38" value="" style="shape=tableRow;horizontal=0;startSize=0;swimlaneHead=0;swimlaneBody=0;strokeColor=inherit;top=0;left=0;bottom=0;right=0;collapsible=0;dropTarget=0;fillColor=none;points=[[0,0.5],[1,0.5]];portConstraint=eastwest;" parent="fjc-DPdYbxBssnIR3eui-33" vertex="1">
          <mxGeometry y="101" width="187" height="168" as="geometry" />
        </mxCell>
        <mxCell id="fjc-DPdYbxBssnIR3eui-39" value="+new_account(type:str)&lt;div&gt;+all_accounts&lt;/div&gt;&lt;div&gt;+search(number:str)&lt;/div&gt;&lt;div&gt;+selected_print&lt;/div&gt;&lt;div&gt;+new_transaction(amount:str, date:str)&lt;/div&gt;&lt;div&gt;+all_t_list&lt;/div&gt;&lt;div&gt;+do_interest&lt;/div&gt;&lt;div&gt;+deselect&lt;/div&gt;" style="shape=partialRectangle;html=1;whiteSpace=wrap;connectable=0;strokeColor=inherit;overflow=hidden;fillColor=none;top=0;left=0;bottom=0;right=0;pointerEvents=1;spacingLeft=7;align=left;" parent="fjc-DPdYbxBssnIR3eui-38" vertex="1">
          <mxGeometry width="187" height="168" as="geometry">
            <mxRectangle width="187" height="168" as="alternateBounds" />
          </mxGeometry>
        </mxCell>
        <mxCell id="fjc-DPdYbxBssnIR3eui-41" value="" style="shape=table;startSize=0;container=1;collapsible=0;childLayout=tableLayout;" parent="1" vertex="1">
          <mxGeometry x="-101" y="320" width="187" height="200" as="geometry" />
        </mxCell>
        <mxCell id="fjc-DPdYbxBssnIR3eui-42" value="" style="shape=tableRow;horizontal=0;startSize=0;swimlaneHead=0;swimlaneBody=0;strokeColor=inherit;top=0;left=0;bottom=0;right=0;collapsible=0;dropTarget=0;fillColor=none;points=[[0,0.5],[1,0.5]];portConstraint=eastwest;" parent="fjc-DPdYbxBssnIR3eui-41" vertex="1">
          <mxGeometry width="187" height="20" as="geometry" />
        </mxCell>
        <mxCell id="fjc-DPdYbxBssnIR3eui-43" value="Account" style="shape=partialRectangle;html=1;whiteSpace=wrap;connectable=0;strokeColor=inherit;overflow=hidden;fillColor=none;top=0;left=0;bottom=0;right=0;pointerEvents=1;" parent="fjc-DPdYbxBssnIR3eui-42" vertex="1">
          <mxGeometry width="187" height="20" as="geometry">
            <mxRectangle width="187" height="20" as="alternateBounds" />
          </mxGeometry>
        </mxCell>
        <mxCell id="fjc-DPdYbxBssnIR3eui-44" value="" style="shape=tableRow;horizontal=0;startSize=0;swimlaneHead=0;swimlaneBody=0;strokeColor=inherit;top=0;left=0;bottom=0;right=0;collapsible=0;dropTarget=0;fillColor=none;points=[[0,0.5],[1,0.5]];portConstraint=eastwest;" parent="fjc-DPdYbxBssnIR3eui-41" vertex="1">
          <mxGeometry y="20" width="187" height="103" as="geometry" />
        </mxCell>
        <mxCell id="fjc-DPdYbxBssnIR3eui-45" value="-_balance: int&lt;div&gt;&lt;div&gt;-_transactions: list of transactions&lt;/div&gt;&lt;div&gt;+number: int&lt;/div&gt;&lt;div&gt;-type: String&lt;/div&gt;&lt;/div&gt;" style="shape=partialRectangle;html=1;whiteSpace=wrap;connectable=0;strokeColor=inherit;overflow=hidden;fillColor=none;top=0;left=0;bottom=0;right=0;pointerEvents=1;align=left;spacingLeft=7;" parent="fjc-DPdYbxBssnIR3eui-44" vertex="1">
          <mxGeometry width="187" height="103" as="geometry">
            <mxRectangle width="187" height="103" as="alternateBounds" />
          </mxGeometry>
        </mxCell>
        <mxCell id="fjc-DPdYbxBssnIR3eui-46" value="" style="shape=tableRow;horizontal=0;startSize=0;swimlaneHead=0;swimlaneBody=0;strokeColor=inherit;top=0;left=0;bottom=0;right=0;collapsible=0;dropTarget=0;fillColor=none;points=[[0,0.5],[1,0.5]];portConstraint=eastwest;" parent="fjc-DPdYbxBssnIR3eui-41" vertex="1">
          <mxGeometry y="123" width="187" height="77" as="geometry" />
        </mxCell>
        <mxCell id="fjc-DPdYbxBssnIR3eui-47" value="+add_transaction(amt:str, date:str)&amp;nbsp;&lt;div&gt;+all_transactions&lt;/div&gt;&lt;div&gt;+__str__&lt;/div&gt;" style="shape=partialRectangle;html=1;whiteSpace=wrap;connectable=0;strokeColor=inherit;overflow=hidden;fillColor=none;top=0;left=0;bottom=0;right=0;pointerEvents=1;spacingLeft=7;align=left;" parent="fjc-DPdYbxBssnIR3eui-46" vertex="1">
          <mxGeometry width="187" height="77" as="geometry">
            <mxRectangle width="187" height="77" as="alternateBounds" />
          </mxGeometry>
        </mxCell>
        <mxCell id="fjc-DPdYbxBssnIR3eui-49" value="" style="shape=table;startSize=0;container=1;collapsible=0;childLayout=tableLayout;" parent="1" vertex="1">
          <mxGeometry x="-295" y="652" width="187" height="103.75" as="geometry" />
        </mxCell>
        <mxCell id="fjc-DPdYbxBssnIR3eui-50" value="" style="shape=tableRow;horizontal=0;startSize=0;swimlaneHead=0;swimlaneBody=0;strokeColor=inherit;top=0;left=0;bottom=0;right=0;collapsible=0;dropTarget=0;fillColor=none;points=[[0,0.5],[1,0.5]];portConstraint=eastwest;" parent="fjc-DPdYbxBssnIR3eui-49" vertex="1">
          <mxGeometry width="187" height="27" as="geometry" />
        </mxCell>
        <mxCell id="fjc-DPdYbxBssnIR3eui-51" value="Checking" style="shape=partialRectangle;html=1;whiteSpace=wrap;connectable=0;strokeColor=inherit;overflow=hidden;fillColor=none;top=0;left=0;bottom=0;right=0;pointerEvents=1;" parent="fjc-DPdYbxBssnIR3eui-50" vertex="1">
          <mxGeometry width="187" height="27" as="geometry">
            <mxRectangle width="187" height="27" as="alternateBounds" />
          </mxGeometry>
        </mxCell>
        <mxCell id="fjc-DPdYbxBssnIR3eui-54" value="" style="shape=tableRow;horizontal=0;startSize=0;swimlaneHead=0;swimlaneBody=0;strokeColor=inherit;top=0;left=0;bottom=0;right=0;collapsible=0;dropTarget=0;fillColor=none;points=[[0,0.5],[1,0.5]];portConstraint=eastwest;" parent="fjc-DPdYbxBssnIR3eui-49" vertex="1">
          <mxGeometry y="27" width="187" height="77" as="geometry" />
        </mxCell>
        <mxCell id="fjc-DPdYbxBssnIR3eui-55" value="+interest_amounts" style="shape=partialRectangle;html=1;whiteSpace=wrap;connectable=0;strokeColor=inherit;overflow=hidden;fillColor=none;top=0;left=0;bottom=0;right=0;pointerEvents=1;spacingLeft=7;align=left;" parent="fjc-DPdYbxBssnIR3eui-54" vertex="1">
          <mxGeometry width="187" height="77" as="geometry">
            <mxRectangle width="187" height="77" as="alternateBounds" />
          </mxGeometry>
        </mxCell>
        <mxCell id="fjc-DPdYbxBssnIR3eui-57" value="" style="shape=table;startSize=0;container=1;collapsible=0;childLayout=tableLayout;" parent="1" vertex="1">
          <mxGeometry x="73" y="650" width="187" height="103.75" as="geometry" />
        </mxCell>
        <mxCell id="fjc-DPdYbxBssnIR3eui-58" value="" style="shape=tableRow;horizontal=0;startSize=0;swimlaneHead=0;swimlaneBody=0;strokeColor=inherit;top=0;left=0;bottom=0;right=0;collapsible=0;dropTarget=0;fillColor=none;points=[[0,0.5],[1,0.5]];portConstraint=eastwest;" parent="fjc-DPdYbxBssnIR3eui-57" vertex="1">
          <mxGeometry width="187" height="27" as="geometry" />
        </mxCell>
        <mxCell id="fjc-DPdYbxBssnIR3eui-59" value="Savings" style="shape=partialRectangle;html=1;whiteSpace=wrap;connectable=0;strokeColor=inherit;overflow=hidden;fillColor=none;top=0;left=0;bottom=0;right=0;pointerEvents=1;" parent="fjc-DPdYbxBssnIR3eui-58" vertex="1">
          <mxGeometry width="187" height="27" as="geometry">
            <mxRectangle width="187" height="27" as="alternateBounds" />
          </mxGeometry>
        </mxCell>
        <mxCell id="fjc-DPdYbxBssnIR3eui-62" value="" style="shape=tableRow;horizontal=0;startSize=0;swimlaneHead=0;swimlaneBody=0;strokeColor=inherit;top=0;left=0;bottom=0;right=0;collapsible=0;dropTarget=0;fillColor=none;points=[[0,0.5],[1,0.5]];portConstraint=eastwest;" parent="fjc-DPdYbxBssnIR3eui-57" vertex="1">
          <mxGeometry y="27" width="187" height="77" as="geometry" />
        </mxCell>
        <mxCell id="fjc-DPdYbxBssnIR3eui-63" value="+add_transaction(amt:str, date:str)&amp;nbsp;&lt;div&gt;+interest_amounts&lt;/div&gt;" style="shape=partialRectangle;html=1;whiteSpace=wrap;connectable=0;strokeColor=inherit;overflow=hidden;fillColor=none;top=0;left=0;bottom=0;right=0;pointerEvents=1;spacingLeft=7;align=left;" parent="fjc-DPdYbxBssnIR3eui-62" vertex="1">
          <mxGeometry width="187" height="77" as="geometry">
            <mxRectangle width="187" height="77" as="alternateBounds" />
          </mxGeometry>
        </mxCell>
        <mxCell id="fjc-DPdYbxBssnIR3eui-67" value="" style="shape=stencil(lVnJcls3EPwaXqewL2fH+Q9XWY5YUSSXrGx/n35h4ZloPDalm0ShhRlMT8/CU/z04/HL94dTcD/eXl9+f/j7/PXt8RR/OYVwfn58eD2/4adT/HyKn769vD789vry5/PXy+/fv2wnt5/+ePlr+w//XHDeUt1Awf17+aAnS/H/T369nH86P1+dz+bifD7I89Wan8+7cePheR8s5wnQsnVxgc/mZw9atNgFoFmYXWjOSrsNwBvFMAEq/kUSgGJ+9qGmcechIDo2qTrL4oaYrM43lGKtCECzNt9QogXhdEIcZkDuVkXgUrbcZkCx7AUAJs0+5GhemJSDxTIDnIxDzuPPA5CqRWFSbpbcDEjmBJeKtzZTI4EsTgCS9fkGRKaoGyrHIYJdAgDmpDnjYtQZGq3SDW4YeQxII0zXJglqwKQ2x2Hjr3J6YWsM5kTgwP4yi0Bo0iTEgUwKSdK7BCsE8DIOxVmd2QrhcVlzab4BWtiUSVC+mUteBw7P6me2dkvCouqHkO6yNKhyixh0Pss3rcjGOWqQSRHl5vn8XiyOzyOk8wM5c+J9UMrKTDtvTojqVio72d+FPT2zgEFvhH71stgTpEL2amE2yO+l6BjQhjTsL+rkkwJAJsFnr3zo40l2QB2vdhNA6uIHz4/rudujeiUvWcUNHcUskQnJqt41MLEh80qPWudMi10WQzQ51PYAUBS3wQSSyGpdJVvh2oZ3dcJpAMoMgFxkVRfAvkWEnTKpWSQyFdnr1b7IfLEQpGL4wgAlAW2V+TJy6hgQrdMNVToNUerLKwXB1o0aleNQldOZZQ+RVm0PAJHqc5DdJHzgpuSOckdWvpjvBY5kI+pagh4+JQY0cQO4xKqxy/MtetfGTsvGCi35rBroxJRWbilKTnsr4lk3AJkELVROV3Ya5Msa0Ckf9iy/9ayBbiijIb0VuLKmqAKEg5xWzwrykbYCUDW9WWbqaEhvJVCa5R4pKvMBZKYmXVegjwPiUNJ3Rrotkzp8aKpQ7/3vO8mHdonzwQ9pOwZgbvhYYXc8jt3pHQCIC72LeqXOVRQ9qFPU2MV9b8mqJl/l+c1HGYeGdJl96FKWwO5Gg7qcS+AyVekm37Tt6Xs1lgTdyhC30eaqvrsu3RWeqChhXRYBW1+spBvEpEZad1cYrSgImPayuKFUbgN8ko1GPZon1Y6ohtElXE2sSokxvhUC6DF9Kz+UPf1e4DIltBut+K3iwJ0JZkw1srYhENdtsV5mtBmQnBzKQA1alyS9SQM1GID5Q2gM5nraBqYmh7KyjCfZyXqV9+p0tXrrItJ56Uy2T9QNkffKuUnZg8UkrMUPWTheH9YxveyALMsPwuRoZ9pGnb+1M6WNJlJKJdDWBM9cqln6gHQhEUCGqPVhWNi6ddbqhsD7+m2cUNN057kSFUyNiVDSTOXHyQEfWk19dNdtMcoHFSwM8KoNqDzD9Sp3rGkMbPv5PnrS4ziz7G07CxWEMbn8LIh6ERV4sXfnAs9jwB0H3NCfq/NqBHXL/29yEei4Q8d5tUZfFjgIWBLvs54vMsCrPXoL4JYvxfLYPL7zPZPU349+6Xb/PH74+Q3ft/PT0+ULwuu/8zeC+OjybWL8/B8=);lineShape=1;strokeColor=default;" parent="1" vertex="1">
          <mxGeometry x="-232" y="519" width="144" height="135.34" as="geometry" />
        </mxCell>
        <mxCell id="fjc-DPdYbxBssnIR3eui-68" value="" style="shape=stencil(lVlJchw3EHzNXCuwL2dZ/ociRJkM06KCorz83gnTaA4S08nQjRp1dgG1ZGVVX+KH7/efvt1dgvv+8vz0+91fD59f7i/xl0sID1/v754fXvDXJX68xA9fnp7vfnt++vH18+u/v30aT46//nj6c7zh71dcT9baQAX3z/+/dEvhv19+fQU8Pny9BgTLYQVUa+Uc0Jr5sgKS9SYA2SIBghUvAPjv9UitW8vngNqt1hVQzVcBqObiCkjmugAkK30FeAvqSM5aWgCwmQSgVAt+BURrwkslWXYrwFlPAuAtr3GAzSYAuc0wHYBk1QkAvJRXgLcUBcBbX+MwbIpcSo0jnfPM39uAYn71Ug5WRXqnaH5Nvuym324DnIUVkKp14aWI3FzdmrLMpYjcXHMpeavCrdFbWy8dmzWR3mGLdCzmRAHFwDUNQBRHgoW+Bi52c8KtIc1yubp0FF7y3cp6pAQeEUfyuCIFLs1kuQ3wXNMInAI0y2t2IxuzCEOc9Xv1fhUFz8Uw8kK5yBIFDVwuCMBzCGK0KqoTz6+9J/TZK06ez+v7EXR937y+f8RcUKSf3j6ez9bE+x2Xvg+Ss5259fwoI/l6R1Q06/p2BXBjBg+Jx6tVT487lcxhuvq4rCQhuI6SExSgYtUtE6XM7Lt922iBkl9TFvrlmgxltuhTTlyTXzc/8BmdHzpK3BdtIK3R9U4mG8iGKBQhUWzy1lYOQLSo+rdnzvWar9BLqZV5OEn172JprbDBAdoCZSnCpkQLunVcORRxkG5tW2eCG0RiIA51TTywnFKbow+RhTxz5SxV6+pWtM+gmmWdBzgATjLL6DSOvSQtdKZSvEK1YziRyGsUoKq3wOQLgCIkqJywWxDSDl4ntQlAV4BitbOXnNJRdeMwVLkijVuRlpfGUEAWomR53IGVGqYvkXzwEvESfulKbcb5vitpl7UWDJ0Bkord5iWIR1VAfSq/qzvIZtImMV556Z2Ko9TArZSUGgA6kjcvtBGOFDYiU6PO0E5biSYVabeRQJ2/nAXObQWkFAlSo9QNoCKNfrORgNLkSASSnENTqZquFgO7Vab3ppMQONXYfx4AEev5Dk4Frm3Mp+sBHYi2ERBLauTEHBHJQtBqBj2OLDgpx0YcSGsgvXUuVVIzTdL9KBcSJ0UXUOblwpD/yoKf1HsAkowDDkA0AwkXhQVMkIUu7WUHqixam+wOSP31cT1hdGZ6Pb9A0JLkxnWDmgc9dwZ4rCsLfstTL2/gPXcGXFltzQDghuskwQwANav0ngVSrLHP+j6JAk2dY/ciSg2q361hAM0qfoGIJ35B8am5NmxxQ6tQsn7ManXzqmrQdZbuNUfqXtW31qN2kYOQtkArWY8o1c1LSveksLm1yMwACyfa1zipoTHLUMGlI/Zn0xIN9WP/qcartK2cusylfIwJV/tUp/bajiM9bIpLl8SdJOvRZGzOt62zoqXqeAELm0lt/wPPY7BZRPLVzLsb2FSbv9pYKNU4qfD2ahFqcz1SLVLstcTU2pxs0K3MHfMBiLK5dcfrv1alW3vk7cF4hcilXpiLx5ckUaK9sWDtx9blNqDzFurtg9oZgC3oZQAApEpwK6V7vNv2hl13UZho5NdDw54BaFbvetQAwJOb+lymnwUibwCVrn1bgYxbKS1zTCJv+ze9Ae2FO8SIjYp15g9oAKh9+M9/jH0fgD/evv1+eXh8fP10fP3//K0YP71+Z44f/wU=);lineShape=1;strokeColor=default;" parent="1" vertex="1">
          <mxGeometry x="57" y="520" width="116" height="128" as="geometry" />
        </mxCell>
        <mxCell id="fjc-DPdYbxBssnIR3eui-72" value="" style="endArrow=none;html=1;rounded=0;fontSize=12;startSize=8;endSize=8;curved=1;" parent="1" target="fjc-DPdYbxBssnIR3eui-38" edge="1">
          <mxGeometry width="50" height="50" relative="1" as="geometry">
            <mxPoint x="-4.499433307612435" y="239.22707765758923" as="sourcePoint" />
            <mxPoint x="40" y="264" as="targetPoint" />
          </mxGeometry>
        </mxCell>
        <mxCell id="Lo-92Cxc7FktMRW2ecg3-1" value="" style="shape=table;startSize=0;container=1;collapsible=0;childLayout=tableLayout;" vertex="1" parent="1">
          <mxGeometry x="-404" y="21" width="187" height="245.5" as="geometry" />
        </mxCell>
        <mxCell id="Lo-92Cxc7FktMRW2ecg3-2" value="" style="shape=tableRow;horizontal=0;startSize=0;swimlaneHead=0;swimlaneBody=0;strokeColor=inherit;top=0;left=0;bottom=0;right=0;collapsible=0;dropTarget=0;fillColor=none;points=[[0,0.5],[1,0.5]];portConstraint=eastwest;" vertex="1" parent="Lo-92Cxc7FktMRW2ecg3-1">
          <mxGeometry width="187" height="27" as="geometry" />
        </mxCell>
        <mxCell id="Lo-92Cxc7FktMRW2ecg3-3" value="Cli" style="shape=partialRectangle;html=1;whiteSpace=wrap;connectable=0;strokeColor=inherit;overflow=hidden;fillColor=none;top=0;left=0;bottom=0;right=0;pointerEvents=1;" vertex="1" parent="Lo-92Cxc7FktMRW2ecg3-2">
          <mxGeometry width="187" height="27" as="geometry">
            <mxRectangle width="187" height="27" as="alternateBounds" />
          </mxGeometry>
        </mxCell>
        <mxCell id="Lo-92Cxc7FktMRW2ecg3-4" value="" style="shape=tableRow;horizontal=0;startSize=0;swimlaneHead=0;swimlaneBody=0;strokeColor=inherit;top=0;left=0;bottom=0;right=0;collapsible=0;dropTarget=0;fillColor=none;points=[[0,0.5],[1,0.5]];portConstraint=eastwest;" vertex="1" parent="Lo-92Cxc7FktMRW2ecg3-1">
          <mxGeometry y="27" width="187" height="41" as="geometry" />
        </mxCell>
        <mxCell id="Lo-92Cxc7FktMRW2ecg3-5" value="-_bank: Bank object" style="shape=partialRectangle;html=1;whiteSpace=wrap;connectable=0;strokeColor=inherit;overflow=hidden;fillColor=none;top=0;left=0;bottom=0;right=0;pointerEvents=1;align=left;spacingLeft=7;" vertex="1" parent="Lo-92Cxc7FktMRW2ecg3-4">
          <mxGeometry width="187" height="41" as="geometry">
            <mxRectangle width="187" height="41" as="alternateBounds" />
          </mxGeometry>
        </mxCell>
        <mxCell id="Lo-92Cxc7FktMRW2ecg3-6" value="" style="shape=tableRow;horizontal=0;startSize=0;swimlaneHead=0;swimlaneBody=0;strokeColor=inherit;top=0;left=0;bottom=0;right=0;collapsible=0;dropTarget=0;fillColor=none;points=[[0,0.5],[1,0.5]];portConstraint=eastwest;" vertex="1" parent="Lo-92Cxc7FktMRW2ecg3-1">
          <mxGeometry y="68" width="187" height="178" as="geometry" />
        </mxCell>
        <mxCell id="Lo-92Cxc7FktMRW2ecg3-7" value="-_display_menu&lt;div&gt;+run&lt;/div&gt;&lt;div&gt;-_open_account&lt;/div&gt;&lt;div&gt;-_summary&lt;/div&gt;&lt;div&gt;-_select_account&lt;/div&gt;&lt;div&gt;-_add_transaction&lt;/div&gt;&lt;div&gt;-_list_transactions&lt;/div&gt;&lt;div&gt;-_interest_and_fees&lt;/div&gt;&lt;div&gt;-_save&lt;/div&gt;&lt;div&gt;-_load&lt;/div&gt;&lt;div&gt;-_quit&lt;/div&gt;" style="shape=partialRectangle;html=1;whiteSpace=wrap;connectable=0;strokeColor=inherit;overflow=hidden;fillColor=none;top=0;left=0;bottom=0;right=0;pointerEvents=1;spacingLeft=7;align=left;" vertex="1" parent="Lo-92Cxc7FktMRW2ecg3-6">
          <mxGeometry width="187" height="178" as="geometry">
            <mxRectangle width="187" height="178" as="alternateBounds" />
          </mxGeometry>
        </mxCell>
        <mxCell id="Lo-92Cxc7FktMRW2ecg3-8" value="" style="endArrow=none;html=1;rounded=0;fontSize=12;startSize=8;endSize=8;curved=1;entryX=0.5;entryY=1;entryDx=0;entryDy=0;" edge="1" parent="1" source="Lo-92Cxc7FktMRW2ecg3-9" target="fjc-DPdYbxBssnIR3eui-33">
          <mxGeometry width="50" height="50" relative="1" as="geometry">
            <mxPoint x="-9" y="318" as="sourcePoint" />
            <mxPoint x="-5" y="266" as="targetPoint" />
          </mxGeometry>
        </mxCell>
        <mxCell id="Lo-92Cxc7FktMRW2ecg3-10" value="" style="endArrow=none;html=1;rounded=0;fontSize=12;startSize=8;endSize=8;curved=1;entryX=0.5;entryY=1;entryDx=0;entryDy=0;" edge="1" parent="1" target="Lo-92Cxc7FktMRW2ecg3-9">
          <mxGeometry width="50" height="50" relative="1" as="geometry">
            <mxPoint x="-9" y="318" as="sourcePoint" />
            <mxPoint x="-4" y="239" as="targetPoint" />
          </mxGeometry>
        </mxCell>
        <mxCell id="Lo-92Cxc7FktMRW2ecg3-9" value="" style="rhombus;whiteSpace=wrap;html=1;fillColor=#050505;" vertex="1" parent="1">
          <mxGeometry x="-13" y="239" width="17" height="24" as="geometry" />
        </mxCell>
        <mxCell id="Lo-92Cxc7FktMRW2ecg3-11" value="+ is public and - is private" style="rounded=1;whiteSpace=wrap;html=1;" vertex="1" parent="1">
          <mxGeometry x="217" y="209" width="206" height="27" as="geometry" />
        </mxCell>
      </root>
    </mxGraphModel>
  </diagram>
</mxfile>
